<?xml version="1.0" encoding="UTF-8" standalone="no"?>
<!-- Created with Inkscape (http://www.inkscape.org/) -->

<svg
   xmlns:dc="http://purl.org/dc/elements/1.1/"
   xmlns:cc="http://creativecommons.org/ns#"
   xmlns:rdf="http://www.w3.org/1999/02/22-rdf-syntax-ns#"
   xmlns:svg="http://www.w3.org/2000/svg"
   xmlns="http://www.w3.org/2000/svg"
   xmlns:sodipodi="http://sodipodi.sourceforge.net/DTD/sodipodi-0.dtd"
   xmlns:inkscape="http://www.inkscape.org/namespaces/inkscape"
   width="250mm"
   height="200mm"
   viewBox="0 0 250 200"
   version="1.1"
   id="svg8"
   inkscape:version="0.92.5 (2060ec1f9f, 2020-04-08)"
   sodipodi:docname="logo.svg"
   inkscape:export-filename="/home/mathias/logonoir300.png"
   inkscape:export-xdpi="299.96188"
   inkscape:export-ydpi="299.96188">
  <defs
     id="defs2" />
  <sodipodi:namedview
     id="base"
     pagecolor="#ffffff"
     bordercolor="#666666"
     borderopacity="1.0"
     inkscape:pageopacity="0"
     inkscape:pageshadow="2"
     inkscape:zoom="0.5"
     inkscape:cx="663.39864"
     inkscape:cy="349.09847"
     inkscape:document-units="mm"
     inkscape:current-layer="layer1"
     showgrid="false"
     inkscape:window-width="1920"
     inkscape:window-height="1043"
     inkscape:window-x="1366"
     inkscape:window-y="0"
     inkscape:window-maximized="1" />
  <metadata
     id="metadata5">
    <rdf:RDF>
      <cc:Work
         rdf:about="">
        <dc:format>image/svg+xml</dc:format>
        <dc:type
           rdf:resource="http://purl.org/dc/dcmitype/StillImage" />
        <dc:title></dc:title>
      </cc:Work>
    </rdf:RDF>
  </metadata>
  <g
     inkscape:label="Calque 1"
     inkscape:groupmode="layer"
     id="layer1"
     transform="translate(0,-97)">
    <path
       sodipodi:nodetypes="cscsscccssccsccsccsccccccccssccccccscsssccccccccccsccccccccssccccscscccccscscccccscccccsccscccccccsc"
       style="fill:#b7975a;fill-opacity:1;stroke-width:0.34652537"
       d="m 54.460668,273.85899 c -7.799665,-4.00414 -10.414628,-6.86436 -10.414628,-11.39145 0,-1.64755 3.101269,-10.36317 6.89167,-19.36791 3.790465,-9.00484 6.891704,-16.61222 6.891704,-16.9053 0,-0.29282 -4.41204,-7.54299 -9.804556,-16.11095 -8.654511,-13.75085 -9.804892,-16.14584 -9.807432,-20.41821 -0.001,-2.66208 0.367041,-5.85067 0.819476,-7.08587 0.725483,-1.9816 0.351375,-2.32212 -3.180789,-2.89535 -9.466859,-1.53626 -18.693655,-9.11364 -23.127142,-18.99277 -2.537336,-5.65391 -2.8105064,-7.35334 -2.409656,-14.99045 0.559035,-10.6515 4.186785,-18.10604 11.704621,-24.0516 11.666957,-9.22688 24.299552,-9.62052 49.541854,-1.54369 8.429717,2.6973 18.210652,5.30341 21.735381,5.79143 11.741639,1.62564 23.544579,-1.47303 36.862209,-9.67753 4.39879,-2.70992 7.44137,-1.92712 8.03956,2.0686 0.37482,2.50152 -2.51096,4.79891 -12.04219,9.58833 -11.01478,5.53491 -17.51047,6.91828 -29.55692,6.29485 -8.938911,-0.46262 -13.180708,-1.36905 -26.051286,-5.56685 -20.344109,-6.63535 -30.03665,-7.43853 -38.687794,-3.20595 -18.126265,8.86836 -18.244613,34.62157 -0.20194,43.90668 8.045051,4.14019 14.852735,3.65825 27.226816,-1.92749 14.623809,-6.60128 26.736961,-8.86474 44.000764,-8.22202 11.11618,0.41379 15.62995,1.08669 23.32569,3.47724 5.2484,1.63033 11.94881,3.15421 14.88996,3.38642 4.96759,0.3923 5.79667,0.0872 11.66291,-4.29466 9.32599,-6.96565 12.91997,-8.51883 19.72668,-8.52507 4.34534,-0.004 7.57604,0.77066 11.7685,2.82191 3.17841,1.55503 6.28767,2.82737 6.90951,2.82737 1.29024,0 7.67031,7.72499 7.67031,9.28734 0,0.56666 -3.3623,1.27088 -7.47171,1.56489 -12.26293,0.87745 -16.11145,6.7341 -9.22737,14.04222 5.05818,5.36981 8.14242,5.7244 12.96447,1.49054 l 3.94833,-3.46659 2.04753,2.58924 c 4.08925,5.17105 -0.009,14.43999 -7.98784,18.06326 -5.29777,2.40601 -9.04769,2.52073 -14.05176,0.43006 -2.09353,-0.87474 -5.29874,-1.61134 -7.12273,-1.63689 -2.94027,-0.0431 -6.63206,-1.10681 -12.59366,-3.63467 -1.56107,-0.66196 -1.85542,-0.20561 -1.85542,2.88081 0,6.19071 -3.74955,9.99142 -20.37629,20.65423 l -15.60514,10.00756 -8.15604,14.49144 c -8.88949,15.7947 -11.8806,19.54354 -20.122646,25.22004 -5.331384,3.67189 -10.909102,4.6222 -11.706794,1.99455 -0.176849,-0.58309 3.205299,-5.29232 7.516276,-10.46487 l 7.838186,-9.40466 4.447448,-16.0416 c 5.14155,-18.54538 4.74472,-17.65416 12.85099,-28.8595 6.0063,-8.3024 7.26275,-11.3192 5.23613,-12.57168 -0.53287,-0.32961 -4.41776,3.2209 -8.63318,7.88935 -4.21543,4.66847 -8.26472,8.48806 -8.99861,8.48806 -0.73387,0 -4.187881,-2.14508 -7.675712,-4.76691 -7.6241,-5.73109 -14.423522,-8.96158 -18.928789,-8.99315 l -3.32475,-0.0244 3.058741,11.3978 c 1.682339,6.26881 3.059227,12.36587 3.059718,13.54922 5.19e-4,1.18323 -4.755122,10.24851 -10.568132,20.14492 l -10.569018,17.99353 3.471644,3.48752 c 2.278427,2.28878 5.455699,4.00813 9.243746,5.00208 5.214931,1.36828 9.483013,4.51949 9.483013,7.00166 0,0.51853 -3.936319,0.91929 -8.747189,0.89061 -7.823286,-0.0479 -9.494853,-0.43632 -15.826785,-3.68667 z M 170.24757,174.16061 c 6.55006,-6.63839 6.7678,-7.02295 4.80302,-8.48215 -5.03124,-3.73657 -13.08379,-0.82424 -15.53301,5.61775 -1.19462,3.14197 0.57012,9.81796 2.59518,9.81796 0.70061,0 4.36121,-3.12911 8.13481,-6.95356 z m 3.24268,101.58007 c -2.85521,-1.46277 -6.59865,-6.55019 -17.74765,-24.11928 -12.47049,-19.65162 -14.09946,-22.74246 -13.87589,-26.32851 l 0.25334,-4.06316 11.02119,-4.70714 c 6.06169,-2.58895 11.1379,-4.57744 11.28056,-4.41899 0.14323,0.15841 -0.29402,3.62164 -0.97052,7.69587 l -1.22991,7.40772 8.43588,19.62893 c 4.63965,10.79591 8.5069,19.74903 8.5939,19.89567 0.0877,0.14689 4.41159,1.02439 9.61035,1.95041 7.39484,1.31707 9.97158,2.2528 11.83784,4.29843 1.31212,1.43821 2.38561,3.0654 2.38561,3.61603 0,0.57357 -5.54648,1.00045 -12.98813,0.99947 -10.27643,-0.001 -13.74366,-0.38846 -16.60657,-1.85545 z M 5.8145678,265.13976 C 5.7781591,264.11923 5.1240264,257.32035 4.3559521,250.03101 2.288307,230.40883 1.5839366,231.36376 28.360888,217.49221 l 12.411805,-6.42986 5.877692,6.99361 c 3.232773,3.84638 5.877721,7.24903 5.877721,7.56124 0,0.31262 -8.468817,3.42836 -18.819558,6.92448 l -18.819651,6.35659 -1.078846,11.83711 c -0.82532,9.05544 -1.54918,12.35688 -3.080034,14.04847 -2.439489,2.69564 -4.8313078,2.86878 -4.9154492,0.35592 z M 190.74651,178.46663 c -0.36615,-0.95485 -0.17624,-2.22581 0.42242,-2.82446 1.72836,-1.72836 5.02458,-0.56348 5.02458,1.77559 0,2.69694 -4.4831,3.56023 -5.44684,1.04887 z"
       id="path1092"
       inkscape:connector-curvature="0" />
  </g>
</svg>
